<svg version="1" xmlns="http://www.w3.org/2000/svg" width="917.333" height="917.333" viewBox="0 0 688.000000 688.000000"><path d="M214 20.5c-25.9 5.2-47.3 24-56.4 49.3l-3.1 8.7-.2 23.3-.2 23.3-13.3 6.8c-28.1 14.3-45.9 27.1-66.9 48-15.6 15.7-26.4 29.2-35.6 44.8-15 25.5-25.3 56.7-29.4 88.8-1.9 14.7-1.6 52.2.5 67.5 9.5 69.7 44.3 125.7 101.6 163.5 9.9 6.5 30.6 17.7 38.8 20.8l4.2 1.7v19.2c0 22.8 1 28.2 7.7 41.8 4 8 6.1 10.9 13.8 18.5 10.1 10.1 18 15.2 30 19.3l8 2.7 128.5.3c124.4.2 128.7.2 136.1-1.7 15.3-3.9 30.3-13.4 40.2-25.6 6.4-8 13.2-22.1 15.1-31.7 1.7-8.1 2.1-35.7.8-43.3l-.8-4 12.6-6.6c49.1-25.8 86.8-61.9 109.3-104.9 11.6-22.1 20.1-48.7 23.2-72.5 2-15.8 2-52.4-.1-68.5-4.9-37.8-19.7-74.2-42.7-105-8.4-11.3-28-31.7-39.2-40.7-12.7-10.2-31.8-22.6-48.1-31l-15-7.8.8-4c1.1-6.1.9-33.2-.3-40.5-3.5-21.8-19.8-43.5-40.2-53.5-17.7-8.6-5.3-8-147.2-8.2-101.1-.1-127.3.1-132.5 1.2zm245.5 81v7l-15 .7c-35 1.6-53.1 9.7-59.6 26.7-1.7 4.5-2.2 8.5-2.7 20.3l-.5 14.7 3.4.5c1.9.3 9.7.7 17.4 1 43.3 1.7 92.6 15.7 125 35.6 41.4 25.3 65.5 58.6 74.6 103 2.6 12.3 3.6 41 2 53.5-4.5 34.6-19 64.3-43.3 88.5-39.9 39.6-100.3 63-163 63H382v10.2c.1 29.2 9.2 41.7 35.5 48.3 5 1.3 14.7 2.8 21.6 3.5 6.8.6 14.3 1.3 16.7 1.6l4.2.5V594H229v-14h3.3c1.7 0 8.5-.5 15-1 28.9-2.4 45.3-10.3 52.7-25.4 3.8-7.8 5-14.3 5-27.2V516h-15.2c-47.3 0-91.8-9.6-123.8-26.7-15-8-26-16.2-38.6-28.8-21.8-21.7-34.3-45.1-41-76.9-4.6-21.6-4.5-56.9.2-77.4 12.4-53.8 48.9-92.7 108.7-115.8 26.4-10.2 60-16.9 90.2-18 21.7-.8 19.5.8 19.5-14 0-7.7-.6-15.1-1.6-19.4-4.6-20.2-20.5-28.3-58.6-29.7l-15.8-.6V94l115.3.2 115.2.3v7z"/><path d="M291.5 200.1c-47.3 6.2-87.9 37.6-110.5 85.3-11.2 23.6-16 43.9-16 68.1 0 59.6 33.2 107.4 87.5 126.1 14.4 5 33.5 8.4 47.1 8.4h7.4l-.2-144.3-.3-144.2-4-.1c-2.2-.1-7.1.2-11 .7zM380.7 199.7c-.4.3-.7 65.4-.7 144.6v144l11.3-.6c34.3-2 67.8-16.4 92.1-39.7 31.6-30.3 44.6-70.7 38-118.1-9-65.1-48.8-113.1-104.8-126.4-13.2-3.2-34.4-5.4-35.9-3.8z"/></svg>